<?xml version="1.0" encoding="UTF-8" standalone="no"?>
<!-- Created with Inkscape (http://www.inkscape.org/) -->

<svg
   xmlns:dc="http://purl.org/dc/elements/1.1/"
   xmlns:cc="http://creativecommons.org/ns#"
   xmlns:rdf="http://www.w3.org/1999/02/22-rdf-syntax-ns#"
   xmlns:svg="http://www.w3.org/2000/svg"
   xmlns="http://www.w3.org/2000/svg"
   xmlns:xlink="http://www.w3.org/1999/xlink"
   version="1.1"
   width="308"
   height="303"
   id="svg3026">
  <defs
     id="defs3028">
    <filter
       color-interpolation-filters="sRGB"
       id="imagebot_16">
      <feGaussianBlur
         stdDeviation="0.74286"
         id="imagebot_34" />
    </filter>
    <linearGradient
       x1="0.50001001"
       y1="-0.01191"
       x2="0.50001001"
       y2="1.01195"
       id="imagebot_13"
       xlink:href="#imagebot_29" />
    <linearGradient
       id="imagebot_29">
      <stop
         id="imagebot_33"
         style="stop-color:#f9f8f8;stop-opacity:1"
         offset="0" />
      <stop
         id="imagebot_32"
         style="stop-color:#ececec;stop-opacity:1"
         offset="0.07007" />
      <stop
         id="imagebot_31"
         style="stop-color:#e8e7e7;stop-opacity:1"
         offset="0.93327999" />
      <stop
         id="imagebot_30"
         style="stop-color:#b4b3b4;stop-opacity:1"
         offset="1" />
    </linearGradient>
    <linearGradient
       x1="0.29097"
       y1="0.81502002"
       x2="0.30520001"
       y2="1.21637"
       id="imagebot_14"
       xlink:href="#imagebot_25" />
    <linearGradient
       id="imagebot_25">
      <stop
         id="imagebot_28"
         style="stop-color:#dad9d9;stop-opacity:1"
         offset="0" />
      <stop
         id="imagebot_27"
         style="stop-color:#dad9d9;stop-opacity:1"
         offset="0.27965999" />
      <stop
         id="imagebot_26"
         style="stop-color:#000000;stop-opacity:1"
         offset="1" />
    </linearGradient>
    <radialGradient
       cx="103.59114"
       cy="94.287537"
       r="25.809401"
       fx="103.59114"
       fy="94.287537"
       id="imagebot_11"
       xlink:href="#imagebot_21"
       gradientUnits="userSpaceOnUse"
       gradientTransform="matrix(1,0,0,0.84931512,0,14.207706)" />
    <linearGradient
       id="imagebot_21">
      <stop
         id="imagebot_24"
         style="stop-color:#ffffff;stop-opacity:1"
         offset="0" />
      <stop
         id="imagebot_23"
         style="stop-color:#ffffff;stop-opacity:0"
         offset="1" />
    </linearGradient>
    <filter
       color-interpolation-filters="sRGB"
       id="imagebot_9">
      <feGaussianBlur
         stdDeviation="0.71376"
         id="imagebot_22" />
    </filter>
    <radialGradient
       cx="103.59114"
       cy="94.287537"
       r="25.809401"
       fx="103.59114"
       fy="94.287537"
       id="imagebot_8"
       xlink:href="#imagebot_21"
       gradientUnits="userSpaceOnUse"
       gradientTransform="matrix(1,0,0,0.84931512,0,14.207706)" />
    <linearGradient
       x1="0.5"
       y1="1.9999999e-005"
       x2="0.5"
       y2="0.99989003"
       id="imagebot_6"
       xlink:href="#imagebot_18" />
    <linearGradient
       id="imagebot_18">
      <stop
         id="imagebot_20"
         style="stop-color:#a40000;stop-opacity:1"
         offset="0" />
      <stop
         id="imagebot_19"
         style="stop-color:#ef2929;stop-opacity:1"
         offset="1" />
    </linearGradient>
    <linearGradient
       x1="-30.08201"
       y1="176.53407"
       x2="246.1248"
       y2="176.53407"
       id="linearGradient3965"
       xlink:href="#linearGradient3967"
       gradientUnits="userSpaceOnUse" />
    <linearGradient
       id="linearGradient3967">
      <stop
         id="stop3969"
         style="stop-color:#a91a17;stop-opacity:1"
         offset="0" />
      <stop
         id="stop3971"
         style="stop-color:#e71a17;stop-opacity:1"
         offset="1" />
    </linearGradient>
    <linearGradient
       x1="-30.08201"
       y1="176.53407"
       x2="246.1248"
       y2="176.53407"
       id="linearGradient3992"
       xlink:href="#linearGradient3967"
       gradientUnits="userSpaceOnUse"
       gradientTransform="matrix(0.69650183,0,0,0.69650183,79.97639,27.074128)" />
  </defs>
  <metadata
     id="imagebot_17">image/svg+xml<rdf:RDF>
  <cc:Work
     rdf:about="">
    <dc:format>image/svg+xml</dc:format>
    <dc:type
       rdf:resource="http://purl.org/dc/dcmitype/StillImage" />
    <dc:title></dc:title>
  </cc:Work>
</rdf:RDF>
</metadata>
  <path
     d="m 237.29255,35.575868 2.80385,-6.37524 -3.06802,-2.1265 -4.33791,4.78042 -3.57934,0 -4.09067,2.65811 -3.06811,-2.1265 -3.57934,2.6581 -2.55671,-1.0632 c 0,0 -2.28795,-6.58745 -6.3934,-5.58734 -8.20868,1.99976 -1.38508,19.60297 -0.89312,22.59921 -6.08441,18.31767 -5.5046,42.9951 -8.69265,56.805882 -28.6067,20.87727 -71.41012,-4.89934 -111.50391,3.48031 -7.27523,0.0758 1.02318,0.93767 -7.98484,3.47975 -14.80378,-6.15855 -30.89223,23.1542 -14.29362,42.16051 14.56945,18.75524 6.95582,61.45238 6.82575,67.34 -0.13007,5.88771 5.66686,42.16666 5.66686,42.16666 l 8.49894,6.5607 -1.28754,-9.10277 14.67828,0.80318 C 87.17916,251.47945 84.2161,240.14476 82.6686,225.86668 83.18557,211.4995 88.20664,199.40673 95.02926,187.58164 l 1.54508,-9.10278 c 0,0 9.52445,0.52974 20.85574,5.88734 11.33129,5.35769 17.76486,14.72832 49.18877,4.2888 7.99155,8.94993 -3.68719,28.45234 -3.34708,31.05407 l 3.60587,27.57496 -3.60587,9.63923 6.69389,2.40936 8.50279,6.15818 11.58597,-6.55893 -5.66767,-5.08807 -6.18167,-22.21886 c -0.25665,-8.83725 10.5592,-42.96724 12.10419,-46.1851 1.5449,-3.21794 32.70418,-9.10277 29.35656,-34.80464 5.40295,-12.0553 16.99913,-27.30861 11.33057,-70.680052 3.98283,-4.70614 5.79397,-2.54282 10.30068,-11.37942 4.1206,0.26114 3.09025,-0.39899 7.98331,-4.6849 4.89306,-4.28582 -0.38619,-4.68732 0.90082,-7.63071 1.287,-2.94339 1.80092,-3.88348 -10.04304,-8.96838 2.31153,-2.94423 -2.84553,-11.71587 -2.84553,-11.71587 l -9e-5,0 z"
     id="path2504"
     style="fill:url(#linearGradient3992);fill-opacity:1;fill-rule:evenodd" />
</svg>
